{"glyphs":{"0":{"ha":1369,"x_min":0,"x_max":0,"o":"m 42 583 b 675 -17 42 218 264 -17 b 1308 583 1086 -17 1308 218 b 675 1183 1308 949 1086 1183 b 42 583 264 1183 42 949 z m 410 583 b 675 875 410 764 490 875 b 939 583 858 875 939 764 b 675 292 939 403 858 292 b 410 583 490 292 410 403 z "},"1":{"ha":754,"x_min":0,"x_max":0,"o":"m 304 0 l 671 0 l 671 1167 l 14 1167 l 14 865 l 304 865 z "},"2":{"ha":1225,"x_min":0,"x_max":0,"o":"m 1183 789 b 613 1183 1183 1040 976 1183 b 43 774 244 1183 43 1038 l 415 774 b 618 917 415 865 489 917 b 815 799 739 917 815 871 b 635 675 815 714 758 675 b 42 318 217 675 42 569 l 42 0 l 1167 0 l 1167 292 l 381 292 l 381 311 b 668 425 381 394 456 425 b 1183 789 1003 425 1183 553 z "},"3":{"ha":1251,"x_min":0,"x_max":0,"o":"m 1189 856 b 622 1183 1189 1060 975 1183 b 53 800 258 1183 65 1053 l 428 800 b 628 917 440 875 511 917 b 821 799 747 917 821 872 b 633 701 821 732 761 701 l 361 701 l 361 483 l 646 483 b 842 379 779 483 842 450 b 628 254 842 301 760 254 b 414 385 499 254 419 300 l 42 385 b 628 -12 47 124 247 -12 b 1210 317 990 -12 1210 111 b 986 588 1210 457 1139 546 b 1189 856 1125 632 1189 719 z "},"4":{"ha":1283,"x_min":0,"x_max":0,"o":"m 725 0 l 1072 0 l 1072 186 l 1263 186 l 1263 464 l 1072 464 l 1072 1167 l 650 1167 l 21 418 l 21 186 l 725 186 z m 419 464 l 725 828 l 725 464 z "},"5":{"ha":1228,"x_min":0,"x_max":0,"o":"m 1186 368 b 700 731 1186 611 1026 731 b 404 726 604 731 504 729 l 424 875 l 1108 875 l 1108 1167 l 135 1167 l 63 597 l 172 488 b 628 497 281 489 524 497 b 818 372 754 497 818 454 b 617 247 818 296 740 247 b 414 394 492 247 418 296 l 42 394 b 614 -14 46 128 250 -14 b 1186 368 976 -14 1186 126 z "},"6":{"ha":1253,"x_min":0,"x_max":0,"o":"m 638 917 b 832 800 764 917 832 876 l 1207 800 b 660 1183 1207 1046 1010 1183 b 42 581 224 1183 42 1006 b 667 -17 42 183 200 -17 b 1211 375 1035 -17 1211 110 b 743 722 1211 617 1064 722 b 413 656 597 722 488 700 b 638 917 415 847 472 917 z m 643 510 b 842 381 779 510 842 471 b 643 251 842 290 779 251 b 444 381 507 251 444 290 b 643 510 444 471 507 510 z "},"7":{"ha":1071,"x_min":0,"x_max":0,"o":"m 276 0 l 657 0 l 1050 938 l 1050 1167 l 21 1167 l 21 865 l 651 865 z "},"8":{"ha":1293,"x_min":0,"x_max":0,"o":"m 42 326 b 647 -17 42 111 179 -17 b 1251 326 1115 -17 1251 111 b 1050 607 1251 456 1183 550 b 1210 857 1156 663 1210 746 b 647 1181 1210 1069 1050 1181 b 83 857 244 1181 83 1069 b 243 607 83 746 138 663 b 42 326 110 550 42 456 z m 411 369 b 647 493 411 447 483 493 b 883 369 811 493 883 447 b 647 250 883 296 811 250 b 411 369 483 250 411 296 z m 453 804 b 647 914 453 871 513 914 b 842 804 782 914 842 871 b 647 692 842 735 782 692 b 453 804 513 692 453 735 z "},"9":{"ha":1253,"x_min":0,"x_max":0,"o":"m 615 250 b 421 367 489 250 421 290 l 46 367 b 593 -17 46 121 243 -17 b 1211 586 1029 -17 1211 161 b 586 1183 1211 983 1053 1183 b 42 792 218 1183 42 1057 b 510 444 42 550 189 444 b 840 511 656 444 765 467 b 615 250 838 319 781 250 z m 610 657 b 411 786 474 657 411 696 b 610 915 411 876 474 915 b 808 786 746 915 808 876 b 610 657 808 696 746 657 z "},"\u0000":{"ha":0,"x_min":0,"x_max":0,"o":""},"\r":{"ha":347,"x_min":0,"x_max":0,"o":""}," ":{"ha":444,"x_min":0,"x_max":0,"o":""},"!":{"ha":533,"x_min":0,"x_max":0,"o":"m 111 425 l 422 425 l 450 1167 l 83 1167 z m 83 171 b 267 -14 83 54 151 -14 b 449 171 381 -14 449 54 b 267 353 449 285 381 353 b 83 171 151 353 83 285 z "},"\"":{"ha":717,"x_min":0,"x_max":0,"o":"m 56 638 l 306 638 l 319 1167 l 42 1167 z m 411 638 l 661 638 l 675 1167 l 397 1167 z "},"#":{"ha":1246,"x_min":0,"x_max":0,"o":"m 154 0 l 429 0 l 486 296 l 656 296 l 599 0 l 874 0 l 931 296 l 1204 296 l 1204 518 l 972 518 l 992 619 l 1204 619 l 1204 842 l 1033 842 l 1096 1167 l 821 1167 l 758 842 l 589 842 l 651 1167 l 376 1167 l 314 842 l 42 842 l 42 619 l 272 619 l 253 518 l 42 518 l 42 296 l 211 296 z m 528 518 l 547 619 l 717 619 l 697 518 z "},"$":{"ha":1286,"x_min":0,"x_max":0,"o":"m 71 797 b 607 464 71 490 381 479 b 861 367 751 456 861 447 b 675 278 861 308 801 278 b 429 426 511 278 429 328 l 56 426 b 465 25 56 207 193 67 l 465 -157 l 821 -157 l 821 21 b 1231 396 1086 54 1231 179 b 638 701 1231 685 888 683 b 439 786 529 710 439 719 b 624 889 439 847 504 889 b 839 746 751 889 839 842 l 1211 746 b 821 1142 1211 963 1075 1099 l 821 1304 l 465 1304 l 465 1144 b 71 797 214 1108 71 986 z "},"%":{"ha":1854,"x_min":0,"x_max":0,"o":"m 386 0 l 661 0 l 1468 1167 l 1193 1167 z m 1032 338 b 1417 -14 1032 107 1206 -14 b 1799 338 1626 -14 1799 107 b 1417 688 1799 569 1626 688 b 1032 338 1206 688 1032 569 z m 57 831 b 440 479 57 600 229 479 b 822 831 651 479 822 600 b 440 1181 822 1061 651 1181 b 57 831 229 1181 57 1061 z m 1282 338 b 1415 475 1282 428 1343 475 b 1547 338 1489 475 1547 428 b 1415 199 1547 247 1489 199 b 1282 338 1343 199 1282 247 z m 307 831 b 440 968 307 921 367 968 b 572 831 513 968 572 921 b 440 692 572 739 513 692 b 307 831 367 692 307 739 z "},"&":{"ha":1525,"x_min":0,"x_max":0,"o":"m 42 328 b 657 -17 42 111 281 -17 b 1010 28 788 -17 907 -1 b 1081 -28 1036 7 1060 -11 l 1497 -28 b 1279 158 1442 19 1365 86 b 1453 533 1400 253 1464 382 l 1082 533 b 1028 369 1082 469 1063 414 b 861 507 969 418 913 465 b 1196 857 1068 553 1196 674 b 696 1181 1196 1069 1054 1181 b 194 857 338 1181 194 1069 b 293 614 194 765 231 688 b 42 328 125 569 42 475 z m 638 694 b 564 817 588 742 564 781 b 696 928 564 889 610 928 b 828 806 782 928 828 885 b 711 633 828 706 778 656 b 638 694 668 668 642 692 z m 411 386 b 450 476 411 421 425 454 b 747 239 474 460 603 356 b 681 236 725 238 704 236 b 411 386 513 236 411 289 z "},"'":{"ha":361,"x_min":0,"x_max":0,"o":"m 56 638 l 306 638 l 319 1167 l 42 1167 z "},"(":{"ha":611,"x_min":0,"x_max":0,"o":"m 278 1207 b 69 551 153 1056 69 793 b 278 -106 69 303 157 42 l 583 -106 b 403 551 471 42 403 307 b 583 1207 403 810 478 1069 z "},")":{"ha":611,"x_min":0,"x_max":0,"o":"m 28 1207 b 208 551 133 1069 208 810 b 28 -106 208 307 140 42 l 333 -106 b 542 551 454 42 542 303 b 333 1207 542 793 458 1056 z "},"*":{"ha":724,"x_min":0,"x_max":0,"o":"m 275 1167 l 275 1010 l 107 1097 l 28 942 l 174 865 l 28 789 l 107 633 l 275 721 l 275 564 l 449 564 l 449 721 l 617 633 l 696 789 l 550 865 l 696 942 l 617 1097 l 449 1010 l 449 1167 z "},"+":{"ha":904,"x_min":0,"x_max":0,"o":"m 42 436 l 328 436 l 328 151 l 578 151 l 578 436 l 863 436 l 863 686 l 578 686 l 578 972 l 328 972 l 328 686 l 42 686 z "},",":{"ha":472,"x_min":0,"x_max":0,"o":"m 56 -190 l 325 -190 l 417 339 l 131 339 z "},"-":{"ha":653,"x_min":0,"x_max":0,"o":"m 42 436 l 611 436 l 611 686 l 42 686 z "},".":{"ha":476,"x_min":0,"x_max":0,"o":"m 56 171 b 239 -14 56 54 124 -14 b 421 171 353 -14 421 54 b 239 353 421 285 353 353 b 56 171 124 353 56 285 z "},"/":{"ha":625,"x_min":0,"x_max":0,"o":"m 347 1194 l 0 -28 l 278 -28 l 625 1194 z "},":":{"ha":429,"x_min":0,"x_max":0,"o":"m 56 290 b 215 129 56 190 114 129 b 374 290 315 129 374 190 b 215 450 374 390 315 450 b 56 290 114 450 56 390 z m 56 796 b 215 635 56 694 114 635 b 374 796 315 635 374 694 b 215 956 374 894 315 956 b 56 796 114 956 56 894 z "},";":{"ha":433,"x_min":0,"x_max":0,"o":"m 57 796 b 217 635 57 694 115 635 b 375 796 317 635 375 694 b 217 956 375 894 317 956 b 57 796 115 956 57 894 z m 56 -24 l 296 -24 l 378 447 l 122 447 z "},"<":{"ha":806,"x_min":0,"x_max":0,"o":"m 42 422 l 764 203 l 764 453 l 311 582 l 764 710 l 764 960 l 42 742 z "},"=":{"ha":750,"x_min":0,"x_max":0,"o":"m 56 619 l 694 619 l 694 842 l 56 842 z m 56 296 l 694 296 l 694 518 l 56 518 z "},">":{"ha":806,"x_min":0,"x_max":0,"o":"m 764 422 l 764 742 l 42 960 l 42 710 l 494 582 l 42 453 l 42 203 z "},"?":{"ha":1182,"x_min":0,"x_max":0,"o":"m 408 171 b 592 -14 408 54 476 -14 b 774 171 706 -14 774 54 b 592 353 774 285 706 353 b 408 171 476 353 408 285 z m 1126 789 b 590 1183 1126 1040 932 1183 b 56 774 244 1183 56 1038 l 428 774 b 596 917 428 865 490 917 b 758 799 694 917 758 871 b 610 675 758 714 708 696 l 349 619 l 349 361 l 700 425 b 1126 789 972 475 1126 553 z "},"@":{"ha":4975,"x_min":0,"x_max":0,"o":"m 168 56 l 1279 56 l 1279 1167 l 168 1167 z m 365 346 l 365 961 l 715 961 l 725 918 l 826 918 b 1049 757 963 918 1049 858 b 946 603 1049 688 1006 638 b 1074 431 1032 576 1074 515 b 851 261 1074 322 989 261 l 707 261 l 672 346 z m 715 731 l 732 646 l 811 646 b 886 721 869 646 886 688 b 803 790 886 746 869 790 l 707 790 l 689 833 l 501 833 l 501 731 z m 501 603 l 501 474 l 715 474 l 732 389 l 843 389 b 921 465 904 389 921 431 b 833 533 921 501 904 533 l 707 533 l 679 603 z m 2069 819 b 2072 867 2069 838 2071 853 b 2131 922 2079 899 2093 922 b 2158 917 2142 922 2150 919 b 2192 819 2190 901 2192 849 l 2192 767 b 2188 719 2192 749 2190 733 b 2131 664 2182 688 2168 664 b 2103 669 2119 664 2111 665 b 2069 767 2071 686 2069 736 z m 2447 667 b 2383 756 2396 667 2383 711 l 2383 833 b 2447 922 2383 878 2394 922 b 2493 897 2468 922 2485 914 b 2508 818 2503 881 2508 856 l 2508 771 b 2447 667 2508 728 2504 667 z m 3310 715 b 3360 768 3310 750 3331 758 l 3410 783 l 3410 718 b 3356 664 3407 686 3390 664 b 3310 715 3325 664 3310 682 z m 4143 715 b 4193 768 4143 750 4163 758 l 4243 783 l 4243 718 b 4189 664 4239 686 4224 664 b 4143 715 4158 664 4143 682 z m 4639 715 b 4690 768 4639 750 4660 758 l 4739 783 l 4739 718 b 4685 664 4736 686 4719 664 b 4639 715 4654 664 4639 682 z m 1483 826 l 1483 831 b 1544 922 1485 872 1490 922 b 1604 843 1590 922 1604 885 l 1604 826 z m 1914 292 b 1917 339 1914 310 1915 326 b 1975 394 1924 372 1938 394 b 2003 389 1986 394 1994 393 b 2036 292 2035 374 2036 322 l 2036 240 b 2032 193 2036 222 2035 206 b 1975 138 2026 160 2013 138 b 1947 143 1964 138 1954 139 b 1914 240 1915 158 1914 210 z m 1483 778 l 1669 778 l 1669 843 b 1544 978 1669 922 1631 978 b 1417 818 1447 978 1417 906 l 1417 771 b 1544 611 1417 683 1447 611 b 1669 739 1626 611 1667 661 l 1607 739 b 1544 667 1604 700 1589 667 b 1483 769 1488 667 1483 726 z m 1729 615 l 1796 615 l 1796 753 l 1826 793 l 1911 615 l 1983 615 l 1869 846 l 1969 975 l 1896 975 l 1796 839 l 1796 1099 l 1729 1099 z m 2003 768 b 2131 608 2003 681 2032 608 b 2257 768 2228 608 2257 681 l 2257 818 b 2131 978 2257 906 2228 978 b 2003 818 2032 978 2003 906 z m 2379 615 b 2383 654 2381 628 2382 640 b 2461 611 2399 626 2425 611 b 2574 771 2553 611 2574 694 l 2574 818 b 2461 978 2574 894 2553 978 b 2383 936 2428 978 2401 967 l 2383 1099 l 2318 1099 l 2318 615 z m 2635 615 l 2700 615 l 2700 975 l 2635 975 z m 2775 615 l 2840 615 l 2840 833 b 2843 874 2840 850 2842 863 b 2896 922 2849 904 2864 922 b 2949 842 2943 922 2949 881 l 2949 615 l 3014 615 l 3014 833 b 3069 922 3014 874 3018 922 b 3122 842 3118 922 3122 881 l 3122 615 l 3188 615 l 3188 843 b 3182 904 3188 867 3186 888 b 3090 978 3172 956 3143 978 b 3004 922 3049 978 3019 963 b 2917 978 2989 964 2958 978 b 2839 942 2881 978 2856 965 b 2836 975 2839 953 2838 964 l 2775 975 z m 3244 708 b 3336 611 3243 647 3272 611 b 3410 651 3368 611 3396 621 b 3414 615 3411 639 3413 626 l 3478 615 b 3476 633 3476 621 3476 628 b 3476 650 3476 639 3476 644 b 3475 668 3475 656 3475 663 l 3475 853 b 3364 978 3475 931 3447 978 b 3249 856 3283 978 3249 935 l 3311 856 b 3364 924 3311 893 3321 924 b 3385 919 3372 924 3379 922 b 3410 851 3408 908 3410 872 l 3410 832 l 3350 814 b 3299 796 3329 808 3313 801 b 3244 708 3261 776 3244 753 z m 3543 615 l 3608 615 l 3608 833 b 3669 922 3608 878 3615 922 b 3725 842 3718 922 3725 882 l 3725 615 l 3792 615 l 3792 843 b 3785 904 3792 867 3789 888 b 3689 978 3774 957 3743 978 b 3608 940 3656 978 3626 969 b 3607 957 3607 946 3607 951 b 3604 975 3606 963 3606 968 l 3543 975 z m 3956 922 l 4042 922 l 4042 975 l 3956 975 l 3956 1081 l 3889 1067 l 3889 975 l 3829 975 l 3829 922 l 3889 922 l 3889 729 b 3894 675 3889 708 3892 690 b 3990 611 3907 625 3942 611 b 4042 615 4007 611 4024 613 l 4042 669 b 4007 667 4031 668 4018 667 b 3956 722 3965 667 3956 679 z m 4078 708 b 4168 611 4076 647 4106 611 b 4243 651 4201 611 4229 621 b 4247 615 4244 639 4246 626 l 4311 615 b 4310 633 4310 621 4310 628 b 4308 650 4310 639 4310 644 b 4308 668 4308 656 4308 663 l 4308 853 b 4197 978 4308 931 4281 978 b 4082 856 4117 978 4082 935 l 4144 856 b 4197 924 4144 893 4154 924 b 4218 919 4206 924 4213 922 b 4243 851 4242 908 4243 872 l 4243 832 l 4183 814 b 4132 796 4163 808 4146 801 b 4078 708 4094 776 4078 753 z m 4376 615 l 4442 615 l 4442 826 b 4506 913 4442 872 4453 913 b 4536 910 4515 913 4526 911 b 4544 908 4539 910 4542 908 l 4544 975 b 4519 978 4539 976 4525 978 b 4440 939 4486 978 4458 968 b 4439 957 4440 946 4440 951 b 4438 975 4439 963 4439 968 l 4376 975 z m 4574 708 b 4665 611 4574 647 4601 611 b 4740 651 4697 611 4725 621 b 4744 615 4740 639 4742 626 l 4807 615 b 4806 633 4807 621 4807 628 b 4806 650 4806 639 4806 644 b 4806 668 4806 656 4806 663 l 4806 853 b 4693 978 4806 931 4776 978 b 4578 856 4613 978 4578 935 l 4640 856 b 4693 924 4640 893 4651 924 b 4715 919 4701 924 4708 922 b 4739 851 4738 908 4739 872 l 4739 832 l 4679 814 b 4629 796 4660 808 4642 801 b 4574 708 4590 776 4574 753 z m 2624 1072 b 2668 1029 2624 1046 2642 1029 b 2711 1072 2693 1029 2711 1046 b 2668 1115 2711 1099 2693 1115 b 2624 1072 2642 1115 2624 1099 z m 1622 292 b 1625 339 1622 310 1622 326 b 1681 394 1631 371 1643 394 b 1738 317 1726 394 1738 356 l 1803 317 b 1681 451 1803 396 1764 451 b 1556 292 1583 451 1556 376 l 1556 244 b 1681 85 1556 158 1583 85 b 1803 218 1764 85 1803 139 l 1738 218 b 1681 140 1738 181 1726 140 b 1654 146 1669 140 1661 142 b 1622 243 1624 161 1622 214 z m 1847 240 b 1975 82 1847 154 1876 82 b 2101 240 2072 82 2101 154 l 2101 292 b 1975 451 2101 378 2072 451 b 1847 292 1876 451 1847 378 z m 2163 88 l 2228 88 l 2228 307 b 2283 396 2228 346 2232 396 b 2336 314 2332 396 2336 353 l 2336 88 l 2401 88 l 2401 307 b 2458 396 2401 346 2407 396 b 2510 314 2506 396 2510 353 l 2510 88 l 2576 88 l 2576 315 b 2571 378 2576 340 2574 361 b 2478 451 2560 428 2531 451 b 2392 396 2436 451 2407 435 b 2304 451 2376 438 2346 451 b 2228 414 2269 451 2243 439 b 2224 447 2226 425 2225 436 l 2163 447 z m 1408 126 b 1454 82 1408 101 1429 82 b 1499 126 1478 82 1499 101 b 1454 171 1499 150 1479 171 b 1408 126 1429 171 1408 150 z "},"A":{"ha":1538,"x_min":0,"x_max":0,"o":"m 0 0 l 390 0 l 488 253 l 1049 253 l 1146 0 l 1538 0 l 1067 1167 l 471 1167 z m 592 522 l 726 869 l 810 869 l 944 522 z "},"B":{"ha":1344,"x_min":0,"x_max":0,"o":"m 83 0 l 908 0 b 1303 303 1190 0 1303 119 b 1065 594 1303 456 1224 553 b 1272 868 1206 639 1272 729 b 869 1167 1272 1067 1136 1167 l 83 1167 z m 450 283 l 450 474 l 803 474 b 936 378 900 474 936 442 b 803 283 936 318 899 283 z m 450 693 l 450 883 l 765 883 b 906 789 867 883 906 850 b 765 693 906 725 869 693 z "},"C":{"ha":1390,"x_min":0,"x_max":0,"o":"m 731 283 b 410 585 531 283 410 399 b 719 883 410 775 522 883 b 982 711 878 883 968 814 l 1349 711 b 722 1183 1349 1000 1100 1183 b 42 583 308 1183 42 949 b 722 -17 42 218 308 -17 b 1349 456 1100 -17 1349 167 l 982 456 b 731 283 968 353 882 283 z "},"D":{"ha":1432,"x_min":0,"x_max":0,"o":"m 83 0 l 744 0 b 1376 583 1129 0 1376 228 b 744 1167 1376 939 1129 1167 l 83 1167 z m 450 300 l 450 867 l 744 867 b 1008 585 903 867 1008 751 b 744 300 1008 415 903 300 z "},"E":{"ha":1238,"x_min":0,"x_max":0,"o":"m 83 0 l 1185 0 l 1185 292 l 450 292 l 450 467 l 1060 467 l 1060 725 l 450 725 l 450 875 l 1185 875 l 1185 1167 l 83 1167 z "},"F":{"ha":1201,"x_min":0,"x_max":0,"o":"m 83 0 l 450 0 l 450 433 l 1054 433 l 1054 692 l 450 692 l 450 875 l 1176 875 l 1176 1167 l 83 1167 z "},"G":{"ha":1431,"x_min":0,"x_max":0,"o":"m 763 267 b 410 585 539 267 410 383 b 725 900 410 786 522 900 b 969 772 861 900 958 850 l 1343 772 b 719 1183 1319 1035 1078 1183 b 42 583 308 1183 42 949 b 765 -17 42 214 318 -17 b 1361 186 1010 -17 1222 51 l 1361 676 l 679 676 l 679 443 l 994 443 l 994 318 b 763 267 960 294 874 267 z "},"H":{"ha":1408,"x_min":0,"x_max":0,"o":"m 83 0 l 450 0 l 450 456 l 958 456 l 958 0 l 1325 0 l 1325 1167 l 958 1167 l 958 756 l 450 756 l 450 1167 l 83 1167 z "},"I":{"ha":533,"x_min":0,"x_max":0,"o":"m 83 0 l 450 0 l 450 1167 l 83 1167 z "},"J":{"ha":1221,"x_min":0,"x_max":0,"o":"m 594 -15 b 1138 456 954 -15 1138 143 l 1138 1167 l 286 1167 l 286 867 l 771 867 l 771 456 b 582 285 771 342 707 285 b 393 456 457 285 393 342 l 43 456 b 594 -15 25 153 224 -15 z "},"K":{"ha":1419,"x_min":0,"x_max":0,"o":"m 83 0 l 450 0 l 450 313 l 656 501 l 981 0 l 1406 0 l 918 744 l 1378 1167 l 925 1167 l 450 725 l 450 1167 l 83 1167 z "},"L":{"ha":1088,"x_min":0,"x_max":0,"o":"m 83 0 l 1060 0 l 1060 300 l 450 300 l 450 1167 l 83 1167 z "},"M":{"ha":1775,"x_min":0,"x_max":0,"o":"m 83 0 l 442 0 l 442 790 l 767 169 l 1025 169 l 1333 778 l 1333 0 l 1692 0 l 1692 1167 l 1189 1167 l 894 614 l 586 1167 l 83 1167 z "},"N":{"ha":1426,"x_min":0,"x_max":0,"o":"m 83 0 l 433 0 l 433 721 l 883 0 l 1343 0 l 1343 1167 l 993 1167 l 993 451 l 543 1167 l 83 1167 z "},"O":{"ha":1489,"x_min":0,"x_max":0,"o":"m 42 583 b 744 -17 42 218 288 -17 b 1447 583 1200 -17 1447 218 b 744 1183 1447 949 1200 1183 b 42 583 288 1183 42 949 z m 410 583 b 744 875 410 764 511 875 b 1078 583 976 875 1078 764 b 744 292 1078 403 976 292 b 410 583 511 292 410 403 z "},"P":{"ha":1328,"x_min":0,"x_max":0,"o":"m 83 0 l 450 0 l 450 336 l 872 336 b 1286 767 1119 336 1286 511 b 872 1167 1286 1015 1128 1167 l 83 1167 z m 450 619 l 450 867 l 764 867 b 919 743 861 867 919 822 b 764 619 919 665 864 619 z "},"Q":{"ha":1489,"x_min":0,"x_max":0,"o":"m 1346 -196 l 1211 103 b 1447 583 1365 207 1447 374 b 744 1183 1447 949 1200 1183 b 42 583 288 1183 42 949 b 744 -17 42 218 288 -17 b 904 -6 801 -17 854 -12 l 988 -196 z m 410 583 b 744 875 410 764 511 875 b 1078 583 976 875 1078 764 b 744 292 1078 403 976 292 b 410 583 511 292 410 403 z "},"R":{"ha":1439,"x_min":0,"x_max":0,"o":"m 83 0 l 450 0 l 450 394 l 642 394 b 842 311 768 394 807 378 l 1001 0 l 1397 0 l 1211 360 b 1074 492 1181 418 1133 461 b 1317 806 1218 525 1317 644 b 856 1167 1317 1024 1135 1167 l 83 1167 z m 450 636 l 450 867 l 794 867 b 950 753 892 867 950 825 b 794 636 950 678 894 636 z "},"S":{"ha":1314,"x_min":0,"x_max":0,"o":"m 57 803 b 632 453 57 476 389 468 b 903 346 785 443 903 431 b 690 250 903 282 835 250 b 415 399 508 250 415 300 l 42 399 b 667 -17 42 132 254 -17 b 1272 392 1060 -17 1272 118 b 638 714 1272 700 906 693 b 425 807 522 722 425 736 b 638 917 425 872 500 917 b 881 774 781 917 881 869 l 1253 774 b 654 1183 1253 1039 1040 1183 b 57 803 275 1183 57 1044 z "},"T":{"ha":1371,"x_min":0,"x_max":0,"o":"m 503 0 l 869 0 l 869 867 l 1357 867 l 1357 1167 l 14 1167 l 14 867 l 503 867 z "},"U":{"ha":1399,"x_min":0,"x_max":0,"o":"m 700 -17 b 1322 456 1096 -17 1322 156 l 1322 1167 l 956 1167 l 956 464 b 700 292 956 353 865 292 b 443 464 535 292 443 353 l 443 1167 l 76 1167 l 76 456 b 700 -17 76 156 304 -17 z "},"V":{"ha":1468,"x_min":0,"x_max":0,"o":"m 0 1167 l 457 0 l 1011 0 l 1468 1167 l 1076 1167 l 758 311 l 708 311 l 390 1167 z "},"W":{"ha":2061,"x_min":0,"x_max":0,"o":"m 0 1167 l 325 0 l 831 0 l 1014 800 l 1047 800 l 1231 0 l 1736 0 l 2061 1167 l 1671 1167 l 1486 367 l 1463 367 l 1290 1167 l 771 1167 l 599 367 l 575 367 l 390 1167 z "},"X":{"ha":1519,"x_min":0,"x_max":0,"o":"m 1050 0 l 1519 0 l 999 579 l 1519 1167 l 1069 1167 l 781 821 l 469 1167 l 0 1167 l 521 588 l 0 0 l 450 0 l 739 346 z "},"Y":{"ha":1492,"x_min":0,"x_max":0,"o":"m 565 0 l 932 0 l 932 336 l 1492 1167 l 1053 1167 l 764 721 l 728 721 l 439 1167 l 0 1167 l 565 328 z "},"Z":{"ha":1256,"x_min":0,"x_max":0,"o":"m 56 867 l 713 867 l 56 300 l 56 0 l 1200 0 l 1200 300 l 539 300 l 1196 867 l 1200 867 l 1200 1167 l 56 1167 z "},"[":{"ha":649,"x_min":0,"x_max":0,"o":"m 97 -106 l 621 -106 l 621 172 l 431 172 l 431 929 l 621 929 l 621 1207 l 97 1207 z "},"\\":{"ha":625,"x_min":0,"x_max":0,"o":"m 278 1194 l 0 1194 l 347 -28 l 625 -28 z "},"]":{"ha":649,"x_min":0,"x_max":0,"o":"m 28 1207 l 28 929 l 218 929 l 218 172 l 28 172 l 28 -106 l 551 -106 l 551 1207 z "},"^":{"ha":922,"x_min":0,"x_max":0,"o":"m 288 1167 l 28 443 l 292 443 l 461 942 l 631 443 l 894 443 l 635 1167 z "},"_":{"ha":944,"x_min":0,"x_max":0,"o":"m 42 -319 l 903 -319 l 903 -97 l 42 -97 z "},"a":{"ha":1538,"x_min":0,"x_max":0,"o":"m 0 0 l 390 0 l 488 253 l 1049 253 l 1146 0 l 1538 0 l 1067 1167 l 471 1167 z m 592 522 l 726 869 l 810 869 l 944 522 z "},"b":{"ha":1344,"x_min":0,"x_max":0,"o":"m 83 0 l 908 0 b 1303 303 1190 0 1303 119 b 1065 594 1303 456 1224 553 b 1272 868 1206 639 1272 729 b 869 1167 1272 1067 1136 1167 l 83 1167 z m 450 283 l 450 474 l 803 474 b 936 378 900 474 936 442 b 803 283 936 318 899 283 z m 450 693 l 450 883 l 765 883 b 906 789 867 883 906 850 b 765 693 906 725 869 693 z "},"c":{"ha":1390,"x_min":0,"x_max":0,"o":"m 731 283 b 410 585 531 283 410 399 b 719 883 410 775 522 883 b 982 711 878 883 968 814 l 1349 711 b 722 1183 1349 1000 1100 1183 b 42 583 308 1183 42 949 b 722 -17 42 218 308 -17 b 1349 456 1100 -17 1349 167 l 982 456 b 731 283 968 353 882 283 z "},"d":{"ha":1432,"x_min":0,"x_max":0,"o":"m 83 0 l 744 0 b 1376 583 1129 0 1376 228 b 744 1167 1376 939 1129 1167 l 83 1167 z m 450 300 l 450 867 l 744 867 b 1008 585 903 867 1008 751 b 744 300 1008 415 903 300 z "},"e":{"ha":1238,"x_min":0,"x_max":0,"o":"m 83 0 l 1185 0 l 1185 292 l 450 292 l 450 467 l 1060 467 l 1060 725 l 450 725 l 450 875 l 1185 875 l 1185 1167 l 83 1167 z "},"f":{"ha":1201,"x_min":0,"x_max":0,"o":"m 83 0 l 450 0 l 450 433 l 1054 433 l 1054 692 l 450 692 l 450 875 l 1176 875 l 1176 1167 l 83 1167 z "},"g":{"ha":1431,"x_min":0,"x_max":0,"o":"m 763 267 b 410 585 539 267 410 383 b 725 900 410 786 522 900 b 969 772 861 900 958 850 l 1343 772 b 719 1183 1319 1035 1078 1183 b 42 583 308 1183 42 949 b 765 -17 42 214 318 -17 b 1361 186 1010 -17 1222 51 l 1361 676 l 679 676 l 679 443 l 994 443 l 994 318 b 763 267 960 294 874 267 z "},"h":{"ha":1408,"x_min":0,"x_max":0,"o":"m 83 0 l 450 0 l 450 456 l 958 456 l 958 0 l 1325 0 l 1325 1167 l 958 1167 l 958 756 l 450 756 l 450 1167 l 83 1167 z "},"i":{"ha":533,"x_min":0,"x_max":0,"o":"m 83 0 l 450 0 l 450 1167 l 83 1167 z "},"j":{"ha":1221,"x_min":0,"x_max":0,"o":"m 594 -15 b 1138 456 954 -15 1138 143 l 1138 1167 l 286 1167 l 286 867 l 771 867 l 771 456 b 582 285 771 342 707 285 b 393 456 457 285 393 342 l 43 456 b 594 -15 25 153 224 -15 z "},"k":{"ha":1419,"x_min":0,"x_max":0,"o":"m 83 0 l 450 0 l 450 313 l 656 501 l 981 0 l 1406 0 l 918 744 l 1378 1167 l 925 1167 l 450 725 l 450 1167 l 83 1167 z "},"l":{"ha":1088,"x_min":0,"x_max":0,"o":"m 83 0 l 1060 0 l 1060 300 l 450 300 l 450 1167 l 83 1167 z "},"m":{"ha":1775,"x_min":0,"x_max":0,"o":"m 83 0 l 442 0 l 442 790 l 767 169 l 1025 169 l 1333 778 l 1333 0 l 1692 0 l 1692 1167 l 1189 1167 l 894 614 l 586 1167 l 83 1167 z "},"n":{"ha":1426,"x_min":0,"x_max":0,"o":"m 83 0 l 433 0 l 433 721 l 883 0 l 1343 0 l 1343 1167 l 993 1167 l 993 451 l 543 1167 l 83 1167 z "},"o":{"ha":1489,"x_min":0,"x_max":0,"o":"m 42 583 b 744 -17 42 218 288 -17 b 1447 583 1200 -17 1447 218 b 744 1183 1447 949 1200 1183 b 42 583 288 1183 42 949 z m 410 583 b 744 875 410 764 511 875 b 1078 583 976 875 1078 764 b 744 292 1078 403 976 292 b 410 583 511 292 410 403 z "},"p":{"ha":1328,"x_min":0,"x_max":0,"o":"m 83 0 l 450 0 l 450 336 l 872 336 b 1286 767 1119 336 1286 511 b 872 1167 1286 1015 1128 1167 l 83 1167 z m 450 619 l 450 867 l 764 867 b 919 743 861 867 919 822 b 764 619 919 665 864 619 z "},"q":{"ha":1489,"x_min":0,"x_max":0,"o":"m 1346 -196 l 1211 103 b 1447 583 1365 207 1447 374 b 744 1183 1447 949 1200 1183 b 42 583 288 1183 42 949 b 744 -17 42 218 288 -17 b 904 -6 801 -17 854 -12 l 988 -196 z m 410 583 b 744 875 410 764 511 875 b 1078 583 976 875 1078 764 b 744 292 1078 403 976 292 b 410 583 511 292 410 403 z "},"r":{"ha":1439,"x_min":0,"x_max":0,"o":"m 83 0 l 450 0 l 450 394 l 642 394 b 842 311 768 394 807 378 l 1001 0 l 1397 0 l 1211 360 b 1074 492 1181 418 1133 461 b 1317 806 1218 525 1317 644 b 856 1167 1317 1024 1135 1167 l 83 1167 z m 450 636 l 450 867 l 794 867 b 950 753 892 867 950 825 b 794 636 950 678 894 636 z "},"s":{"ha":1314,"x_min":0,"x_max":0,"o":"m 57 803 b 632 453 57 476 389 468 b 903 346 785 443 903 431 b 690 250 903 282 835 250 b 415 399 508 250 415 300 l 42 399 b 667 -17 42 132 254 -17 b 1272 392 1060 -17 1272 118 b 638 714 1272 700 906 693 b 425 807 522 722 425 736 b 638 917 425 872 500 917 b 881 774 781 917 881 869 l 1253 774 b 654 1183 1253 1039 1040 1183 b 57 803 275 1183 57 1044 z "},"t":{"ha":1371,"x_min":0,"x_max":0,"o":"m 503 0 l 869 0 l 869 867 l 1357 867 l 1357 1167 l 14 1167 l 14 867 l 503 867 z "},"u":{"ha":1399,"x_min":0,"x_max":0,"o":"m 700 -17 b 1322 456 1096 -17 1322 156 l 1322 1167 l 956 1167 l 956 464 b 700 292 956 353 865 292 b 443 464 535 292 443 353 l 443 1167 l 76 1167 l 76 456 b 700 -17 76 156 304 -17 z "},"v":{"ha":1468,"x_min":0,"x_max":0,"o":"m 0 1167 l 457 0 l 1011 0 l 1468 1167 l 1076 1167 l 758 311 l 708 311 l 390 1167 z "},"w":{"ha":2061,"x_min":0,"x_max":0,"o":"m 0 1167 l 325 0 l 831 0 l 1014 800 l 1047 800 l 1231 0 l 1736 0 l 2061 1167 l 1671 1167 l 1486 367 l 1463 367 l 1290 1167 l 771 1167 l 599 367 l 575 367 l 390 1167 z "},"x":{"ha":1519,"x_min":0,"x_max":0,"o":"m 1050 0 l 1519 0 l 999 579 l 1519 1167 l 1069 1167 l 781 821 l 469 1167 l 0 1167 l 521 588 l 0 0 l 450 0 l 739 346 z "},"y":{"ha":1492,"x_min":0,"x_max":0,"o":"m 565 0 l 932 0 l 932 336 l 1492 1167 l 1053 1167 l 764 721 l 728 721 l 439 1167 l 0 1167 l 565 328 z "},"z":{"ha":1256,"x_min":0,"x_max":0,"o":"m 56 867 l 713 867 l 56 300 l 56 0 l 1200 0 l 1200 300 l 539 300 l 1196 867 l 1200 867 l 1200 1167 l 56 1167 z "},"{":{"ha":774,"x_min":0,"x_max":0,"o":"m 407 1207 b 222 1007 308 1207 222 1114 l 222 694 l 28 694 l 28 407 l 222 407 l 222 94 b 407 -106 222 -12 308 -106 l 746 -106 l 746 172 l 556 172 l 556 379 b 435 551 556 471 514 529 b 556 722 514 572 556 631 l 556 929 l 746 929 l 746 1207 z "},"|":{"ha":542,"x_min":0,"x_max":0,"o":"m 125 -106 l 417 -106 l 417 1207 l 125 1207 z "},"}":{"ha":774,"x_min":0,"x_max":0,"o":"m 28 1207 l 28 929 l 218 929 l 218 722 b 339 551 218 631 260 572 b 218 379 260 529 218 471 l 218 172 l 28 172 l 28 -106 l 367 -106 b 551 94 465 -106 551 -12 l 551 407 l 746 407 l 746 694 l 551 694 l 551 1007 b 367 1207 551 1114 465 1207 z "},"~":{"ha":921,"x_min":0,"x_max":0,"o":"m 460 422 b 649 383 529 396 592 383 b 878 464 731 383 803 410 l 878 714 b 649 633 803 660 731 633 b 460 672 592 633 529 646 b 272 710 390 697 329 710 b 42 629 190 710 117 683 l 42 379 b 272 460 117 433 190 460 b 460 422 329 460 390 447 z "},"¡":{"ha":533,"x_min":0,"x_max":0,"o":"m 83 -14 l 450 -14 l 422 728 l 111 728 z m 83 982 b 267 800 83 868 151 800 b 449 982 381 800 449 868 b 267 1167 449 1099 381 1167 b 83 982 151 1167 83 1099 z "},"¢":{"ha":1390,"x_min":0,"x_max":0,"o":"m 731 283 b 410 585 531 283 410 399 b 719 883 410 775 522 883 b 982 711 878 883 968 814 l 1349 711 b 874 1172 1349 960 1165 1131 l 874 1304 l 518 1304 l 518 1163 b 42 583 222 1096 42 885 b 518 4 42 282 222 71 l 518 -157 l 874 -157 l 874 -6 b 1349 456 1165 36 1349 207 l 982 456 b 731 283 968 353 882 283 z "},"¥":{"ha":1547,"x_min":0,"x_max":0,"o":"m 593 0 l 960 0 l 960 143 l 1382 143 l 1382 351 l 960 351 l 960 439 l 1382 439 l 1382 647 l 1169 647 l 1519 1167 l 1081 1167 l 792 721 l 756 721 l 467 1167 l 28 1167 l 378 647 l 156 647 l 156 439 l 593 439 l 593 351 l 156 351 l 156 143 l 593 143 z "},"¦":{"ha":543,"x_min":0,"x_max":0,"o":"m 126 -106 l 418 -106 l 418 408 l 126 408 z m 126 694 l 418 694 l 418 1207 l 126 1207 z "},"«":{"ha":1022,"x_min":0,"x_max":0,"o":"m 271 39 l 549 39 l 319 572 l 549 1106 l 271 1106 l 42 572 z m 701 39 l 979 39 l 750 572 l 979 1106 l 701 1106 l 472 572 z "},"±":{"ha":904,"x_min":0,"x_max":0,"o":"m 42 513 l 328 513 l 328 290 l 578 290 l 578 513 l 863 513 l 863 749 l 578 749 l 578 972 l 328 972 l 328 749 l 42 749 z m 42 0 l 863 0 l 863 236 l 42 236 z "},"·":{"ha":476,"x_min":0,"x_max":0,"o":"m 56 585 b 239 400 56 468 124 400 b 421 585 353 400 421 468 b 239 767 421 699 353 767 b 56 585 124 767 56 699 z "},"»":{"ha":1022,"x_min":0,"x_max":0,"o":"m 979 572 l 750 1106 l 472 1106 l 701 572 l 472 39 l 750 39 z m 549 572 l 319 1106 l 42 1106 l 271 572 l 42 39 l 319 39 z "},"¿":{"ha":1182,"x_min":0,"x_max":0,"o":"m 56 381 b 592 -14 56 129 250 -14 b 1126 396 938 -14 1126 132 l 754 396 b 586 253 754 304 692 253 b 424 371 488 253 424 299 b 572 494 424 456 474 474 l 833 550 l 833 808 l 482 744 b 56 381 210 694 56 617 z m 774 999 b 590 1183 774 1115 706 1183 b 408 999 476 1183 408 1115 b 590 817 408 885 476 817 b 774 999 706 817 774 885 z "},"×":{"ha":882,"x_min":0,"x_max":0,"o":"m 42 783 l 264 561 l 43 340 l 219 163 l 440 385 l 663 163 l 839 340 l 618 561 l 840 783 l 663 960 l 440 738 l 219 960 z "},"÷":{"ha":921,"x_min":0,"x_max":0,"o":"m 292 185 b 461 14 292 76 354 14 b 629 185 567 14 629 76 b 461 353 629 290 567 353 b 292 185 354 353 292 290 z m 42 431 l 879 431 l 879 661 l 42 661 z m 292 911 b 461 739 292 803 354 739 b 629 911 567 739 629 803 b 461 1079 629 1015 567 1079 b 292 911 354 1079 292 1015 z "},"˜":{"ha":621,"x_min":0,"x_max":0,"o":""},"–":{"ha":944,"x_min":0,"x_max":0,"o":"m 42 436 l 903 436 l 903 686 l 42 686 z "},"—":{"ha":1560,"x_min":0,"x_max":0,"o":"m 42 436 l 1518 436 l 1518 686 l 42 686 z "},"‘":{"ha":361,"x_min":0,"x_max":0,"o":"m 56 1167 l 42 638 l 319 638 l 306 1167 z "},"’":{"ha":361,"x_min":0,"x_max":0,"o":"m 56 638 l 306 638 l 319 1167 l 42 1167 z "},"‚":{"ha":361,"x_min":0,"x_max":0,"o":"m 56 -269 l 306 -269 l 319 260 l 42 260 z "},"“":{"ha":717,"x_min":0,"x_max":0,"o":"m 56 1167 l 42 638 l 319 638 l 306 1167 z m 411 1167 l 397 638 l 675 638 l 661 1167 z "},"”":{"ha":717,"x_min":0,"x_max":0,"o":"m 56 638 l 306 638 l 319 1167 l 42 1167 z m 411 638 l 661 638 l 675 1167 l 397 1167 z "},"„":{"ha":717,"x_min":0,"x_max":0,"o":"m 56 -269 l 306 -269 l 319 260 l 42 260 z m 411 -269 l 661 -269 l 675 260 l 397 260 z "},"•":{"ha":700,"x_min":0,"x_max":0,"o":"m 83 571 b 350 304 83 424 203 304 b 615 571 496 304 615 424 b 350 836 615 717 496 836 b 83 571 203 836 83 717 z "},"…":{"ha":1429,"x_min":0,"x_max":0,"o":"m 56 171 b 239 -14 56 54 124 -14 b 421 171 353 -14 421 54 b 239 353 421 285 353 353 b 56 171 124 353 56 285 z m 532 171 b 715 -14 532 54 600 -14 b 897 171 829 -14 897 54 b 715 353 897 285 829 353 b 532 171 600 353 532 285 z m 1008 171 b 1192 -14 1008 54 1076 -14 b 1374 171 1306 -14 1374 54 b 1192 353 1374 285 1306 353 b 1008 171 1076 353 1008 285 z "},"‰":{"ha":2690,"x_min":0,"x_max":0,"o":"m 386 0 l 661 0 l 1468 1167 l 1193 1167 z m 1032 338 b 1417 -14 1032 107 1206 -14 b 1799 338 1626 -14 1799 107 b 1417 688 1799 569 1626 688 b 1032 338 1206 688 1032 569 z m 1868 338 b 2251 -14 1868 107 2040 -14 b 2633 338 2463 -14 2633 107 b 2251 688 2633 569 2463 688 b 1868 338 2040 688 1868 569 z m 57 831 b 440 479 57 600 229 479 b 822 831 651 479 822 600 b 440 1181 822 1061 651 1181 b 57 831 229 1181 57 1061 z m 1282 338 b 1415 475 1282 428 1343 475 b 1547 338 1489 475 1547 428 b 1415 199 1547 247 1489 199 b 1282 338 1343 199 1282 247 z m 2118 338 b 2251 475 2118 428 2178 475 b 2383 338 2324 475 2383 428 b 2251 199 2383 247 2324 199 b 2118 338 2178 199 2118 247 z m 307 831 b 440 968 307 921 367 968 b 572 831 513 968 572 921 b 440 692 572 739 513 692 b 307 831 367 692 307 739 z "},"‹":{"ha":590,"x_min":0,"x_max":0,"o":"m 271 39 l 549 39 l 319 572 l 549 1106 l 271 1106 l 42 572 z "},"›":{"ha":590,"x_min":0,"x_max":0,"o":"m 549 572 l 319 1106 l 42 1106 l 271 572 l 42 39 l 319 39 z "},"⁄":{"ha":625,"x_min":0,"x_max":0,"o":"m 347 1194 l 0 -28 l 278 -28 l 625 1194 z "},"€":{"ha":1608,"x_min":0,"x_max":0,"o":"m 935 283 b 679 386 821 283 733 321 l 1033 386 l 1033 546 l 615 546 b 614 585 614 558 614 571 b 615 617 614 596 614 607 l 1033 617 l 1033 776 l 669 776 b 924 883 721 846 808 883 b 1186 711 1082 883 1172 814 l 1553 711 b 926 1183 1553 1000 1304 1183 b 274 776 592 1183 353 1029 l 43 776 l 43 617 l 247 617 b 246 583 246 606 246 594 b 247 546 246 571 246 558 l 43 546 l 43 386 l 275 386 b 926 -17 356 136 593 -17 b 1553 456 1304 -17 1553 167 l 1186 456 b 935 283 1172 353 1086 283 z "},"−":{"ha":653,"x_min":0,"x_max":0,"o":"m 42 436 l 611 436 l 611 686 l 42 686 z "}}}
